<svg id="visual" viewBox="0 0 900 600" width="900" height="600" xmlns="http://www.w3.org/2000/svg" xmlns:xlink="http://www.w3.org/1999/xlink" version="1.1"><rect x="0" y="0" width="900" height="600" fill="#a1defc"></rect><path d="M0 108L21.5 104.2C43 100.3 86 92.7 128.8 92.2C171.7 91.7 214.3 98.3 257.2 100.2C300 102 343 99 385.8 108.7C428.7 118.3 471.3 140.7 514.2 146.7C557 152.7 600 142.3 642.8 139.7C685.7 137 728.3 142 771.2 136.3C814 130.7 857 114.3 878.5 106.2L900 98L900 0L878.5 0C857 0 814 0 771.2 0C728.3 0 685.7 0 642.8 0C600 0 557 0 514.2 0C471.3 0 428.7 0 385.8 0C343 0 300 0 257.2 0C214.3 0 171.7 0 128.8 0C86 0 43 0 21.5 0L0 0Z" fill="#002e73" stroke-linecap="round" stroke-linejoin="miter"></path></svg>